<svg width="96" height="110" viewBox="0 0 96 110" fill="none" xmlns="http://www.w3.org/2000/svg">
<path d="M48 55C63.15 55 75.4286 42.6895 75.4286 27.5C75.4286 12.3105 63.15 0 48 0C32.85 0 20.5714 12.3105 20.5714 27.5C20.5714 42.6895 32.85 55 48 55ZM67.2 61.875H63.6214C58.8643 64.0664 53.5714 65.3125 48 65.3125C42.4286 65.3125 37.1571 64.0664 32.3786 61.875H28.8C12.9 61.875 0 74.8086 0 90.75V99.6875C0 105.381 4.60714 110 10.2857 110H85.7143C91.3929 110 96 105.381 96 99.6875V90.75C96 74.8086 83.1 61.875 67.2 61.875Z" fill="#CCCCCC"/>
</svg>
